<?xml version="1.0" encoding="utf-8"?>
<svg xmlns="http://www.w3.org/2000/svg" viewBox="220.135 160.738 122.88 119.94">
  <path fill='#2196F3' d="M 290.765 255.908 C 289.018 257.588 287.165 259.254 285.205 260.908 L 285.745 260.818 L 287.435 260.518 C 288.966 260.207 290.482 259.82 291.975 259.358 L 292.315 259.258 L 293.385 261.548 L 294.585 264.128 L 293.515 264.468 C 291.844 264.986 290.149 265.42 288.435 265.768 C 286.715 266.121 284.965 266.384 283.185 266.558 C 281.405 266.728 279.595 266.818 277.765 266.818 C 275.935 266.818 274.145 266.728 272.365 266.558 C 270.585 266.388 268.845 266.118 267.115 265.768 C 265.426 265.439 263.757 265.018 262.115 264.508 C 260.469 263.999 258.851 263.408 257.265 262.738 L 257.135 262.738 L 257.045 262.678 C 255.485 262.011 253.968 261.274 252.495 260.468 C 250.965 259.648 249.495 258.748 248.055 257.798 C 246.667 256.872 245.332 255.87 244.055 254.798 C 242.725 253.708 241.465 252.558 240.255 251.358 C 239.054 250.177 237.919 248.932 236.855 247.628 C 235.786 246.319 234.785 244.957 233.855 243.548 C 232.874 242.124 231.966 240.652 231.135 239.138 C 230.845 238.608 230.565 238.068 230.295 237.528 L 283.495 237.528 C 283.582 238.547 283.783 239.553 284.095 240.528 C 284.185 240.798 284.275 241.078 284.385 241.348 L 285.005 242.868 L 280.465 242.868 L 280.465 257.978 C 283.345 255.578 286.005 253.168 288.465 250.748 C 289.235 252.468 290.025 254.188 290.815 255.908 L 290.765 255.908 Z M 270.425 260.938 C 267.216 258.224 264.161 255.332 261.275 252.278 C 258.468 249.326 255.887 246.167 253.555 242.828 L 239.875 242.828 C 240.435 243.578 241.025 244.298 241.635 244.998 C 242.395 245.878 243.195 246.738 244.025 247.568 C 245.111 248.661 246.238 249.681 247.405 250.628 C 248.575 251.592 249.793 252.497 251.055 253.338 C 252.325 254.205 253.64 255.007 254.995 255.738 C 256.328 256.478 257.748 257.144 259.255 257.738 L 259.335 257.738 L 259.395 257.738 C 260.805 258.328 262.245 258.858 263.705 259.308 C 265.189 259.771 266.698 260.151 268.225 260.448 C 268.785 260.558 269.355 260.658 269.915 260.748 L 270.425 260.828 L 270.425 260.938 Z M 239.815 184.738 L 254.345 184.738 C 256.662 181.438 259.194 178.294 261.925 175.328 C 264.741 172.246 267.711 169.309 270.825 166.528 L 270.055 166.638 C 269.425 166.738 268.805 166.848 268.195 166.978 C 266.656 167.286 265.134 167.673 263.635 168.138 C 262.138 168.598 260.669 169.142 259.235 169.768 C 257.761 170.394 256.348 171.061 254.995 171.768 C 253.641 172.474 252.308 173.268 250.995 174.148 C 249.733 174.988 248.515 175.893 247.345 176.858 C 246.175 177.808 245.055 178.858 243.965 179.918 C 243.135 180.748 242.335 181.608 241.575 182.488 C 240.955 183.198 240.355 183.928 239.785 184.688 L 239.815 184.738 Z M 284.815 166.568 C 288.075 169.494 291.031 172.414 293.685 175.328 C 296.416 178.291 298.945 181.435 301.255 184.738 L 315.755 184.738 C 315.195 183.998 314.605 183.268 313.995 182.568 C 313.245 181.698 312.435 180.838 311.595 179.998 C 310.508 178.911 309.385 177.891 308.225 176.938 C 307.055 175.972 305.837 175.068 304.575 174.228 C 303.315 173.381 302.001 172.588 300.635 171.848 C 299.268 171.108 297.848 170.434 296.375 169.828 L 296.285 169.738 C 294.865 169.148 293.425 168.618 291.965 168.168 C 290.466 167.707 288.944 167.33 287.405 167.038 C 286.765 166.908 286.135 166.798 285.525 166.738 L 284.825 166.628 L 284.815 166.568 Z M 267.135 161.788 C 268.855 161.434 270.605 161.171 272.385 160.998 C 274.135 160.828 275.975 160.738 277.795 160.738 C 279.615 160.738 281.415 160.828 283.205 160.998 C 284.995 161.168 286.725 161.438 288.455 161.788 C 290.143 162.121 291.812 162.545 293.455 163.058 C 295.11 163.565 296.739 164.155 298.335 164.828 L 298.445 164.828 L 298.535 164.878 C 300.095 165.584 301.628 166.338 303.135 167.138 C 304.655 167.968 306.135 168.858 307.555 169.798 C 308.94 170.726 310.276 171.727 311.555 172.798 C 312.888 173.884 314.151 175.031 315.345 176.238 C 316.543 177.42 317.678 178.665 318.745 179.968 C 319.813 181.276 320.814 182.638 321.745 184.048 C 322.745 185.468 323.585 186.928 324.405 188.438 C 324.695 188.968 324.975 189.508 325.245 190.048 L 230.245 190.048 C 230.525 189.508 230.805 188.958 231.095 188.428 C 231.915 186.918 232.805 185.428 233.735 184.048 C 234.665 182.668 235.665 181.308 236.735 180.048 C 237.805 178.788 238.975 177.448 240.175 176.248 C 241.36 175.052 242.605 173.917 243.905 172.848 C 245.217 171.78 246.582 170.779 247.995 169.848 C 249.405 168.848 250.875 168.008 252.375 167.198 C 253.875 166.388 255.525 165.588 257.135 164.908 C 258.767 164.211 260.436 163.603 262.135 163.088 C 263.779 162.571 265.447 162.137 267.135 161.788 Z M 280.465 169.848 L 280.465 184.738 L 294.695 184.738 C 292.699 182.163 290.573 179.693 288.325 177.338 C 285.945 174.851 283.325 172.344 280.465 169.818 L 280.465 169.848 Z M 275.135 257.978 L 275.135 242.828 L 260.135 242.828 C 262.202 245.481 264.429 248.006 266.805 250.388 C 269.452 253.056 272.232 255.589 275.135 257.978 Z M 275.135 184.738 L 275.135 169.848 C 272.275 172.368 269.655 174.874 267.275 177.368 C 265.027 179.714 262.9 182.174 260.905 184.738 L 275.135 184.738 Z" transform="matrix(1, 0, 0, 1, 0, 1.4210854715202004e-14)"/>
  <path fill='#a3ddff' d="M 226.135 225.878 L 220.135 201.738 L 228.815 201.738 L 231.575 216.458 L 231.765 216.458 L 234.845 201.738 L 243.275 201.738 L 246.485 216.328 L 246.665 216.328 L 249.315 201.738 L 257.985 201.738 L 251.985 225.888 L 242.585 225.888 L 239.185 212.888 L 238.935 212.888 L 235.545 225.888 L 226.135 225.878 Z M 264.865 225.878 L 258.875 201.738 L 267.545 201.738 L 270.315 216.458 L 270.505 216.458 L 273.585 201.738 L 282.015 201.738 L 285.225 216.328 L 285.405 216.328 L 288.045 201.738 L 296.725 201.738 L 290.725 225.888 L 281.315 225.888 L 277.925 212.888 L 277.675 212.888 L 274.275 225.888 L 264.865 225.878 Z M 303.605 225.878 L 297.615 201.738 L 306.285 201.738 L 309.055 216.458 L 309.235 216.458 L 312.325 201.738 L 320.755 201.738 L 323.965 216.328 L 324.135 216.328 L 326.785 201.738 L 335.465 201.738 L 329.465 225.888 L 320.055 225.888 L 316.665 212.888 L 316.415 212.888 L 313.015 225.888 L 303.605 225.878 Z" transform="matrix(1, 0, 0, 1, 0, 1.4210854715202004e-14)"/>
  <path fill='#ffffff' stroke='#ffffff' stroke-opacity="0%" d="M 316.776 239.974 L 328.01 243.362 C 331.955 244.768 340.833 246.125 341.64 248.512 C 342.782 251.89 338.049 253.89 334.841 255.584 C 333.531 256.276 331.099 257.35 331.25 257.924 C 331.468 258.75 332.048 259.196 335.227 261.891 C 335.755 262.339 336.951 263.482 340.366 266.241 C 341.941 267.514 341.915 268.398 341.156 269.673 C 339.538 272.389 338.937 272.677 336.562 275.109 C 334.72 276.996 333.142 275.592 333.142 275.592 C 333.142 275.592 326.567 270.55 324.855 268.619 C 323.187 266.738 322.759 268.43 322.249 269.809 C 320.649 274.139 318.61 279.673 316.574 279.566 C 314.658 279.466 313.322 278.689 312.055 275.312 C 310.936 272.329 309.93 269.732 307.541 264.651 C 305.411 260.121 304.23 257.577 302.372 253.414 C 300.692 249.65 296.874 241.742 295.574 237.823 C 293.876 232.702 300.843 236.517 303.25 236.469 L 316.776 239.974 Z" transform="matrix(0.9999999999999999, 0, 0, 0.9999999999999999, 2.842170943040401e-14, 2.842170943040401e-14)"/>
  <path fill='#000000' d="M 336.725 276.368 C 336.463 276.622 336.158 276.828 335.825 276.978 C 335.492 277.124 335.137 277.216 334.775 277.248 C 334.359 277.281 333.942 277.234 333.545 277.108 C 333.149 276.985 332.781 276.785 332.465 276.518 L 323.555 268.958 L 320.555 276.468 C 320.306 277.071 320.001 277.651 319.645 278.198 C 319.314 278.693 318.924 279.146 318.485 279.548 C 316.819 281.266 313.98 280.956 312.725 278.918 C 312.446 278.526 312.208 278.107 312.015 277.668 C 306.645 264.248 299.455 250.868 294.135 237.418 C 293.442 235.713 294.854 233.898 296.676 234.15 C 296.712 234.155 296.749 234.161 296.785 234.168 C 309.675 236.558 326.365 241.998 339.475 245.478 C 343.545 246.548 344.205 250.138 341.195 252.918 C 340.718 253.363 340.195 253.755 339.635 254.088 C 337.325 255.398 334.985 256.908 332.705 258.298 L 341.575 265.898 C 341.891 266.177 342.15 266.517 342.335 266.898 L 342.335 266.958 C 342.508 267.311 342.61 267.695 342.635 268.088 C 342.657 268.485 342.613 268.884 342.505 269.268 C 342.384 269.656 342.198 270.022 341.955 270.348 C 340.344 272.442 338.618 274.445 336.785 276.348 L 336.725 276.368 Z M 334.435 273.418 L 338.725 268.418 C 336.835 266.788 328.775 260.508 327.895 258.988 C 327.398 258.119 327.687 257.013 328.545 256.498 C 331.345 254.938 334.965 252.758 337.625 250.978 C 337.959 250.781 338.273 250.553 338.565 250.298 C 338.786 250.1 338.981 249.875 339.145 249.628 L 339.265 249.398 L 339.025 249.258 C 338.837 249.174 338.643 249.107 338.445 249.058 L 298.555 238.448 L 315.315 276.208 C 315.398 276.391 315.495 276.568 315.605 276.738 L 315.775 276.958 L 315.985 276.808 C 316.207 276.61 316.399 276.381 316.555 276.128 C 316.76 275.812 316.935 275.477 317.075 275.128 C 318.335 272.048 319.755 267.848 321.225 265.008 L 321.405 264.758 C 322.059 263.987 323.214 263.893 323.985 264.548 L 334.475 273.438 L 334.435 273.418 Z" transform="matrix(1, 0, 0, 1, 0, 1.4210854715202004e-14)"/>
</svg>